name rise36.2859peak64.2979fall75.1499.mot
datacolumns 19
datarows 20
range 3.09665500000000 3.12832600000000
endheader
time	ground_force1_vx	ground_force1_vy	ground_force1_vz	ground_force1_px	ground_force1_py	ground_force1_pz	ground_force2_vx	ground_force2_vy	ground_force2_vz	ground_force2_px	ground_force2_py	ground_force2_pz	ground_torque1_x	ground_torque1_y	ground_torque1_z	ground_torque2_x	ground_torque2_y	ground_torque2_z	
3.09665500000000	-9.14959400000000	42.15789600000000	-11.12955800000000	0.41157200000000	0.00000000000000	0.08433400000000	-52.31679800000000	795.45689000000004	-41.68689100000000	0.21419700000000	0.00000000000000	-0.07674200000000	0.00000000000000	-9.24916400000000	0.00000000000000	0.00000000000000	-23.81254100000000	0.00000000000000	
3.09832400000000	-10.03751000000000	49.34361900000000	-12.50249900000000	0.41447900000000	0.00000000000000	0.08540900000000	-53.30561000000000	793.00849100000005	-41.35516800000000	0.21299200000000	0.00000000000000	-0.07666100000000	0.00000000000000	-10.45407500000000	0.00000000000000	0.00000000000000	-23.74668700000000	0.00000000000000	
3.09999100000000	-10.75413300000000	56.60257200000000	-13.74569200000000	0.41713400000000	0.00000000000000	0.08639000000000	-54.30795400000000	790.43023600000004	-41.01065600000000	0.21177600000000	0.00000000000000	-0.07657800000000	0.00000000000000	-11.56540400000000	0.00000000000000	0.00000000000000	-23.68093600000000	0.00000000000000	
3.10165400000000	-11.27497700000000	63.84016000000000	-14.82976400000000	0.41957900000000	0.00000000000000	0.08729100000000	-55.32260800000000	787.71856900000000	-40.65328800000000	0.21055000000000	0.00000000000000	-0.07649400000000	0.00000000000000	-12.55809400000000	0.00000000000000	0.00000000000000	-23.61515500000000	0.00000000000000	
3.10331900000000	-11.58572000000000	70.98542200000000	-15.73537200000000	0.42184500000000	0.00000000000000	0.08812400000000	-56.34824800000000	784.86991699999999	-40.28299900000000	0.20931400000000	0.00000000000000	-0.07641000000000	0.00000000000000	-13.41516700000000	0.00000000000000	0.00000000000000	-23.54919400000000	0.00000000000000	
3.10499200000000	-11.68203300000000	77.99315400000000	-16.45332100000000	0.42396000000000	0.00000000000000	0.08889700000000	-57.38344300000000	781.88069700000005	-39.89973100000000	0.20806900000000	0.00000000000000	-0.07632400000000	0.00000000000000	-14.12791000000000	0.00000000000000	0.00000000000000	-23.48288400000000	0.00000000000000	
3.10665400000000	-11.56863300000000	84.84357199999999	-16.98382600000000	0.42594700000000	0.00000000000000	0.08961700000000	-58.42666100000000	778.74733000000003	-39.50343000000000	0.20681500000000	0.00000000000000	-0.07623800000000	0.00000000000000	-14.69535500000000	0.00000000000000	0.00000000000000	-23.41604100000000	0.00000000000000	
3.10831900000000	-11.25774800000000	91.53992200000000	-17.33513800000000	0.42782200000000	0.00000000000000	0.09029200000000	-59.47626700000000	775.46624899999995	-39.09405000000000	0.20555400000000	0.00000000000000	-0.07615100000000	0.00000000000000	-15.12320900000000	0.00000000000000	0.00000000000000	-23.34845900000000	0.00000000000000	
3.10999100000000	-10.76723300000000	98.10461800000000	-17.52174300000000	0.42960300000000	0.00000000000000	0.09092700000000	-60.53052900000000	772.03391799999997	-38.67155700000000	0.20428500000000	0.00000000000000	-0.07606300000000	0.00000000000000	-15.42242800000000	0.00000000000000	0.00000000000000	-23.27992100000000	0.00000000000000	
3.11165500000000	-10.11855200000000	104.57446299999999	-17.56236600000000	0.43130100000000	0.00000000000000	0.09152500000000	-61.58761600000000	768.44683599999996	-38.23592200000000	0.20301000000000	0.00000000000000	-0.07597400000000	0.00000000000000	-15.60759600000000	0.00000000000000	0.00000000000000	-23.21018900000000	0.00000000000000	
3.11332000000000	-9.33481400000000	110.99552000000000	-17.47797500000000	0.43292900000000	0.00000000000000	0.09209000000000	-62.64560300000000	764.70155899999997	-37.78713400000000	0.20173000000000	0.00000000000000	-0.07588300000000	0.00000000000000	-15.69529800000000	0.00000000000000	0.00000000000000	-23.13901600000000	0.00000000000000	
3.11498900000000	-8.43900700000000	117.41810700000001	-17.28995000000000	0.43449500000000	0.00000000000000	0.09262600000000	-63.70247600000000	760.79470700000002	-37.32519400000000	0.20044600000000	0.00000000000000	-0.07579200000000	0.00000000000000	-15.70260900000000	0.00000000000000	0.00000000000000	-23.06613500000000	0.00000000000000	
3.11667200000000	-7.45254900000000	123.89230000000001	-17.01853400000000	0.43600700000000	0.00000000000000	0.09313500000000	-64.75613300000001	756.72298200000000	-36.85011600000000	0.19915800000000	0.00000000000000	-0.07569900000000	0.00000000000000	-15.64579500000000	0.00000000000000	0.00000000000000	-22.99127000000000	0.00000000000000	
3.11832300000000	-6.39420700000000	130.46419599999999	-16.68163300000000	0.43747300000000	0.00000000000000	0.09362000000000	-65.80438900000000	752.48318400000005	-36.36193600000000	0.19786800000000	0.00000000000000	-0.07560500000000	0.00000000000000	-15.53931100000000	0.00000000000000	0.00000000000000	-22.91413200000000	0.00000000000000	
3.11999000000000	-5.27940100000000	137.17310499999999	-16.29401400000000	0.43889800000000	0.00000000000000	0.09408200000000	-66.84498200000000	748.07222400000001	-35.86070500000000	0.19657600000000	0.00000000000000	-0.07551000000000	0.00000000000000	-15.39509900000000	0.00000000000000	0.00000000000000	-22.83442100000000	0.00000000000000	
3.12166700000000	-4.11989000000000	144.04972000000001	-15.86686900000000	0.44028700000000	0.00000000000000	0.09452200000000	-67.87557700000001	743.48714099999995	-35.34649500000000	0.19528400000000	0.00000000000000	-0.07541400000000	0.00000000000000	-15.22220800000000	0.00000000000000	0.00000000000000	-22.75182700000000	0.00000000000000	
3.12332300000000	-2.92377500000000	151.11521400000001	-15.40773300000000	0.44164400000000	0.00000000000000	0.09494400000000	-68.89377100000000	738.72511999999995	-34.81940200000000	0.19399300000000	0.00000000000000	-0.07531500000000	0.00000000000000	-15.02668900000000	0.00000000000000	0.00000000000000	-22.66603100000000	0.00000000000000	
3.12498500000000	-1.69578900000000	158.38118600000001	-14.92069100000000	0.44297300000000	0.00000000000000	0.09534700000000	-69.89710100000001	733.78351099999998	-34.27954100000000	0.19270300000000	0.00000000000000	-0.07521600000000	0.00000000000000	-14.81174100000000	0.00000000000000	0.00000000000000	-22.57670600000000	0.00000000000000	
3.12666100000000	-0.43777600000000	165.85028500000001	-14.40679900000000	0.44427600000000	0.00000000000000	0.09573400000000	-70.88304700000000	728.65984300000002	-33.72705400000000	0.19141700000000	0.00000000000000	-0.07511500000000	0.00000000000000	-14.57804000000000	0.00000000000000	0.00000000000000	-22.48352000000000	0.00000000000000	
3.12832600000000	0.85070600000000	173.51735500000001	-13.86466100000000	0.44555800000000	0.00000000000000	0.09610400000000	-71.84904000000000	723.35184700000002	-33.16210500000000	0.19013500000000	0.00000000000000	-0.07501200000000	0.00000000000000	-14.32419700000000	0.00000000000000	0.00000000000000	-22.38613500000000	0.00000000000000	
